<svg xmlns="http://www.w3.org/2000/svg" version="1.1" style="" width="403.28" height="334.85"><rect id="backgroundrect" width="100%" height="100%" x="0" y="0" fill="none" stroke="none"/>
 
<g class="currentLayer" style=""><title>Layer 1</title><g fill-rule="evenodd" id="svg_1" class="" stroke="#242424" fill-opacity="1" fill="#ffffff" stroke-opacity="1">
  <path d="m5.346416625976559,353.24941711425777 c0,-5.1094 4.1406,-9.25 9.2461,-9.25 h336.69 c5.1094,0 9.25,4.1406 9.25,9.25 c0,5.1055 -4.1406,9.2461 -9.25,9.2461 h-336.69 c-5.1055,0 -9.2461,-4.1406 -9.2461,-9.2461 z" id="svg_2" stroke="#242424" fill="#ffffff" fill-opacity="1" stroke-opacity="1"/>
  <path d="m182.76641662597655,27.65941711425782 c4.4336,-0.08203200000000002 8.3047,2.9922 9.2227,7.3281 l33.684,159 l16.73,-27.156 c1.7266000000000001,-2.8008 4.8086,-4.4727 8.0977,-4.3945 c3.2891,0.07812400000000003 6.2891,1.8984 7.875,4.7773 l42.008,76.168 l29.777,-31.23 c1.7422,-1.8359 4.1641,-2.8711 6.6914,-2.8711 c2.5312,0 4.9531,1.0352 6.6953000000000005,2.8711 l38.48,40.359 c3.5234,3.6992000000000003 3.3828,9.5508 -0.31250000000000006,13.078 c-3.6992000000000003,3.5234 -9.5508,3.3828 -13.078,-0.31250000000000006 l-31.785,-33.34 l-31.781,33.34 c-2.0352,2.1328 -4.9609000000000005,3.168 -7.8828000000000005,2.7891 c-2.9219,-0.37500000000000006 -5.4883,-2.125 -6.9102,-4.707 l-40.441,-73.324 l-20.543,33.348 c-1.9844,3.2227 -5.7266,4.9102 -9.4531,4.2617 c-3.7266000000000004,-0.64453 -6.6875,-3.4961 -7.4727,-7.1953 l-28.52,-134.63 l-30.273,174.65 c-0.7109400000000001,4.1055 -4.0781,7.2266 -8.2227,7.6289 c-4.1484,0.40234000000000003 -8.0508,-2.0195 -9.5312,-5.9102 l-31.914,-83.688 l-28.594,44.992 c-2.4766,3.8906 -7.4375,5.3633 -11.637,3.457 l-29.516,-13.414 l-34.969,91.703 c-1.8203,4.7734 -7.168,7.168 -11.941,5.3477 c-4.7734,-1.8203 -7.1641,-7.1641 -5.3438,-11.938 l38.477,-100.91 c0.91016,-2.3867000000000003 2.7656,-4.2891 5.1289,-5.2578 c2.3594,-0.97266 5.0156,-0.92188 7.3398,0.13281 l31.16,14.164 l34.164,-53.758 c1.8789000000000002,-2.9531 5.2578,-4.5938 8.7383,-4.2422 c3.4805,0.35547000000000006 6.4648,2.6406 7.7109000000000005,5.9062 l26.477,69.43 l32.723,-188.8 c0.7578100000000001,-4.3711 4.5117,-7.5859000000000005 8.9414,-7.668 z" id="svg_3" stroke="#242424" fill="#ffffff" fill-opacity="1" stroke-opacity="1"/>
 </g></g></svg>